<svg version="1.1" id="Layer_1" xmlns="http://www.w3.org/2000/svg" xmlns:xlink="http://www.w3.org/1999/xlink" x="0px" y="0px"
	 width="100%" viewBox="0 0 1024 1024" enable-background="new 0 0 1024 1024" xml:space="preserve">
<path fill="none" opacity="1.000000" stroke="#000000" stroke-linecap="round" stroke-linejoin="round" stroke-width="6.000000"
	d="
M529.000000,347.500000 
	C533.840332,350.943024 538.810181,350.177734 544.013672,348.287567 
	C558.307373,343.095337 572.784546,338.389618 586.973389,332.930908 
	C610.454834,323.897125 634.728516,317.089020 657.990845,307.477844 
	C679.382141,298.639709 693.735046,282.933990 701.950134,261.480896 
	C702.981628,258.787262 703.710571,255.862747 703.934204,252.994873 
	C704.859497,241.130768 698.187500,237.332657 687.491211,236.634384 
	C671.189331,235.570175 655.859741,240.704865 641.054260,246.635468 
	C616.849670,256.331055 594.604370,269.649994 573.446533,284.925964 
	C552.358521,300.151489 532.875427,317.158478 514.504456,335.504425 
	C513.048462,336.958435 511.288147,338.218384 511.000000,340.500000 
"/>
<path fill="none" opacity="1.000000" stroke="#000000" stroke-linecap="round" stroke-linejoin="round" stroke-width="15.000000"
	d="
M173.000000,562.000000 
	C191.339737,567.824158 205.804504,559.887939 219.513031,549.016418 
	C231.483597,539.523132 240.844391,527.992065 246.963745,513.984131 
	C251.958221,502.551178 255.224243,490.723755 249.923965,478.533051 
	C244.976791,467.154602 235.832184,460.755280 223.495621,460.080048 
	C184.122177,457.924957 156.616226,477.057434 137.133774,509.580139 
	C133.690903,515.327454 131.658112,521.907471 131.376022,528.995056 
	C131.013794,538.096130 136.366470,545.374573 146.500000,544.000000 
"/>
<path fill="none" opacity="1.000000" stroke="#000000" stroke-linecap="round" stroke-linejoin="round" stroke-width="21.000000"
	d="
M283.000000,531.000000 
	C272.407684,533.016785 265.902008,539.963074 260.961426,548.978882 
	C258.261292,553.906250 253.371155,557.244568 250.966888,562.484802 
	C246.633667,571.929382 243.047119,581.638367 242.127975,592.011353 
	C241.648697,597.420288 242.627182,602.941650 247.013596,606.985229 
	C252.267014,611.828247 258.693329,612.659119 264.945648,608.419861 
	C274.859375,601.698181 281.484314,592.267883 285.504211,581.001526 
	C285.805603,580.156799 285.929352,579.046753 286.536438,578.543945 
	C293.205536,573.020813 291.797150,564.483093 294.385468,557.457825 
	C295.516754,554.387146 295.584747,550.909912 295.587982,547.500061 
	C295.592072,543.149597 294.660706,539.428711 290.470703,537.565918 
	C287.281372,536.148010 287.163544,531.734131 283.500000,531.000000 
"/>
<path fill="none" opacity="1.000000" stroke="#000000" stroke-linecap="round" stroke-linejoin="round" stroke-width="22.000000"
	d="
M909.500000,530.000000 
	C904.440430,540.936279 898.271973,551.152588 889.997864,559.997986 
	C888.158875,561.963867 885.923218,563.475647 883.480774,564.451843 
	C877.020264,567.034180 871.418823,563.445801 869.936401,556.513611 
	C868.192932,548.360229 871.882996,541.266785 874.172668,534.054810 
	C876.944702,525.323669 881.028076,517.011414 884.488403,508.495270 
	C886.242310,504.178650 886.890015,499.648346 886.725586,494.990112 
	C878.597107,491.697174 873.955688,491.505463 866.973083,498.974854 
	C860.875244,505.497742 855.936279,512.812012 851.510498,520.506042 
	C847.532288,527.422180 841.257935,528.824036 834.000000,528.000000 
"/>
<path fill="none" opacity="1.000000" stroke="#000000" stroke-linecap="round" stroke-linejoin="round" stroke-width="18.000000"
	d="
M463.500000,383.000000 
	C469.766541,386.216003 474.947357,385.212402 480.081055,380.081085 
	C490.769745,369.397461 499.649475,357.714935 504.039490,343.011780 
	C504.793549,340.486267 504.800110,337.903320 504.393341,335.518188 
	C503.396820,329.675018 497.953827,327.003937 492.515350,329.533020 
	C486.172821,332.482513 482.627411,338.177917 479.551636,344.027161 
	C473.039886,356.410400 467.512939,369.174591 462.593781,382.348297 
	C458.830017,392.427826 456.440674,403.208130 450.618530,412.573700 
	C449.344116,414.623718 448.297089,415.460052 446.002258,415.554565 
	C441.794922,415.727875 438.896210,417.767273 436.359497,421.401917 
	C432.863373,426.411194 429.449463,431.635986 424.509125,435.511658 
	C421.050293,438.225067 417.475983,439.634186 412.981842,438.051514 
	C408.326263,436.412018 407.104736,433.039062 406.316650,428.532074 
	C405.652618,424.734680 406.517700,421.811218 407.916016,418.464905 
	C412.962860,406.387451 417.666626,394.166656 422.499969,382.000000 
"/>
<path fill="none" opacity="1.000000" stroke="#000000" stroke-linecap="round" stroke-linejoin="round" stroke-width="25.000000"
	d="
M395.000031,512.000000 
	C390.166687,524.166687 385.225403,536.291870 380.534576,548.513245 
	C376.846161,558.123047 374.427856,568.198730 371.949432,578.112366 
	C370.851715,582.503174 371.486877,588.717651 374.497223,593.501770 
	C379.288971,601.117004 388.122803,602.891602 395.431305,596.916016 
	C405.283234,588.860840 411.066650,577.743042 416.466614,566.484009 
	C416.726593,565.941956 416.500000,565.166687 416.500000,564.500000 
"/>
<path fill="none" opacity="1.000000" stroke="#000000" stroke-linecap="round" stroke-linejoin="round" stroke-width="11.000000"
	d="
M469.500000,402.500000 
	C469.192444,407.919739 472.066589,412.665863 472.628204,417.986481 
	C474.075012,431.693024 472.421539,444.709656 465.998932,456.999451 
	C464.356812,460.141724 461.878937,462.520935 458.995117,464.492859 
	C453.992706,467.913422 447.502472,464.878418 445.990356,458.502289 
	C444.068207,450.397217 446.060333,442.439301 447.121643,434.516296 
	C447.969788,428.184784 450.536469,422.065247 449.000000,415.500000 
"/>
<path fill="none" opacity="1.000000" stroke="#000000" stroke-linecap="round" stroke-linejoin="round" stroke-width="22.000000"
	d="
M450.750000,513.500000 
	C451.556671,514.547363 450.561584,515.839111 451.452515,517.035339 
	C454.833069,521.574585 453.454285,525.784607 451.129730,530.563110 
	C445.030518,543.101196 440.042908,556.142517 436.081146,569.524048 
	C435.042786,573.031311 434.836945,576.820251 434.541718,580.503357 
	C434.181458,584.997559 435.129486,589.247498 439.533569,591.432312 
	C443.879852,593.588501 448.566498,593.838562 452.980377,591.463501 
	C457.003265,589.298950 460.544617,586.334290 462.940399,582.463135 
	C467.952942,574.363586 474.389984,568.965515 484.500000,569.500000 
"/>
<path fill="none" opacity="1.000000" stroke="#000000" stroke-linecap="round" stroke-linejoin="round" stroke-width="25.000000"
	d="
M364.500000,467.000000 
	C365.782410,472.983032 361.827209,477.386322 359.367737,481.928375 
	C345.571564,507.406311 334.737335,534.064270 325.203979,561.396729 
	C322.247162,569.874023 320.732178,578.415466 319.106262,587.020081 
	C317.299530,596.581421 322.708221,603.720276 331.490936,605.059448 
	C337.146973,605.921753 340.931396,602.675598 344.403534,599.397827 
	C348.162750,595.848999 351.789886,591.859619 354.354065,587.415833 
	C358.207153,580.738281 363.853668,578.307251 371.000000,578.000000 
"/>
<path fill="none" opacity="1.000000" stroke="#000000" stroke-linecap="round" stroke-linejoin="round" stroke-width="21.000000"
	d="
M632.500000,509.000031 
	C630.666626,507.833344 628.631104,506.892181 627.035034,505.460968 
	C620.148987,499.286133 612.264038,501.003601 606.048828,505.566467 
	C594.004883,514.408508 587.187622,527.065674 581.450500,540.478821 
	C578.528809,547.309387 577.126282,554.592712 574.540222,561.515015 
	C572.607178,566.689697 575.196838,571.145325 578.126404,574.901428 
	C580.751770,578.267517 587.149048,578.403809 591.488708,575.979797 
	C595.607788,573.678955 599.182983,570.364075 601.334229,566.409851 
	C604.863464,559.922852 610.050842,557.070435 617.000000,556.500000 
"/>
<path fill="none" opacity="1.000000" stroke="#000000" stroke-linecap="round" stroke-linejoin="round" stroke-width="11.000000"
	d="
M672.500000,676.000000 
	C678.950439,677.892151 685.435181,678.792908 691.473633,674.958496 
	C697.620178,671.055603 701.861389,665.553711 704.018188,658.505554 
	C704.931763,655.520081 704.609375,652.757568 702.465576,650.533203 
	C699.693604,647.657043 696.447815,647.929443 692.987854,649.472717 
	C682.310242,654.235291 676.573181,663.214966 672.569580,673.527039 
	C670.728699,678.268616 668.239380,682.689270 669.772461,688.559448 
	C671.619690,695.632324 677.180908,700.634216 684.503601,700.044678 
	C696.152771,699.106812 703.012024,691.338928 709.465454,682.973389 
	C711.519714,680.310425 713.166687,677.333374 715.000061,674.500000 
"/>
<path fill="none" opacity="1.000000" stroke="#000000" stroke-linecap="round" stroke-linejoin="round" stroke-width="11.000000"
	d="
M623.500000,675.000000 
	C628.889832,677.151367 634.238831,679.657288 640.004395,676.006958 
	C647.392822,671.329407 652.946106,665.193359 654.951111,656.488708 
	C656.224487,650.960266 649.851562,646.868774 644.502380,649.005920 
	C633.617371,653.354797 627.459900,662.000671 623.543457,672.516174 
	C621.748962,677.334106 619.591370,682.063965 619.946350,687.503479 
	C620.482666,695.720276 628.621094,702.489868 636.475403,700.407227 
	C642.576050,698.789612 648.227173,696.096008 652.549744,691.042542 
	C656.690796,686.201233 661.073059,681.392456 668.500000,682.500000 
"/>
<path fill="none" opacity="1.000000" stroke="#000000" stroke-linecap="round" stroke-linejoin="round" stroke-width="24.000000"
	d="
M194.500000,480.000000 
	C196.025558,484.500000 196.285492,488.793793 194.602524,493.536377 
	C187.992645,512.163147 180.807465,530.588745 174.918381,549.474548 
	C173.781540,553.120300 173.385483,556.866821 172.392502,560.470398 
	C170.982513,565.587036 168.503067,570.406799 167.061325,575.517273 
	C162.560852,591.470154 158.398315,607.518188 153.933929,623.481506 
	C153.216980,626.045166 153.728500,628.504150 153.500000,631.000000 
"/>
<path fill="none" opacity="1.000000" stroke="#000000" stroke-linecap="round" stroke-linejoin="round" stroke-width="17.000000"
	d="
M560.000000,658.500000 
	C565.452820,661.423645 571.232239,661.439453 576.976074,659.910095 
	C579.546448,659.225769 581.463440,659.604980 582.960327,661.530823 
	C584.483215,663.490173 586.521912,664.860229 588.543579,665.916565 
	C600.430725,672.127380 597.661499,682.749695 590.879761,689.377014 
	C580.777283,699.249390 568.215576,703.449402 554.001648,701.983765 
	C548.031738,701.368286 544.608032,696.101746 546.513794,690.504700 
	C550.181274,679.733337 554.711914,669.275696 558.879761,658.754333 
	C563.073425,648.167664 568.014404,637.633423 571.014160,626.503845 
	C571.067322,626.306580 571.333374,626.166687 571.500000,626.000000 
"/>
<path fill="none" opacity="1.000000" stroke="#000000" stroke-linecap="round" stroke-linejoin="round" stroke-width="19.000000"
	d="
M731.500000,319.000000 
	C731.573364,322.495300 728.812195,324.660339 727.452087,327.476868 
	C718.658142,345.687317 710.633850,364.212891 704.567993,383.521362 
	C703.097839,388.200958 701.464600,393.009613 700.501892,397.605133 
	C699.648926,401.676636 699.866089,407.456299 703.502502,411.497742 
	C707.453613,415.888885 713.724365,415.774689 718.978271,410.976196 
	C725.400818,405.110413 729.464233,397.548798 733.486938,389.993042 
	C734.081238,388.876587 734.500000,387.666656 735.000000,386.500000 
"/>
<path fill="none" opacity="1.000000" stroke="#000000" stroke-linecap="round" stroke-linejoin="round" stroke-width="10.000000"
	d="
M281.000000,348.500000 
	C277.231903,349.500031 273.670532,350.790588 269.469482,350.227997 
	C266.738617,349.862305 264.041504,352.113220 261.974792,354.477966 
	C248.958374,369.371460 237.009949,385.080811 226.063400,401.542175 
	C224.456772,403.958221 223.218475,406.825928 224.000000,410.000000 
"/>
<path fill="none" opacity="1.000000" stroke="#000000" stroke-linecap="round" stroke-linejoin="round" stroke-width="14.000000"
	d="
M801.500000,489.500000 
	C787.552124,489.609833 776.709717,494.859406 770.467285,507.984467 
	C768.607666,511.894684 764.589783,514.040833 762.357788,517.918152 
	C756.483643,528.122620 753.499084,539.245178 751.102966,550.521912 
	C748.808167,561.322021 759.304504,571.447571 770.009705,569.554932 
	C773.326599,568.968567 775.734253,566.842834 777.900085,564.889221 
	C785.484863,558.047485 791.545288,550.013428 794.502258,540.000671 
	C794.651428,539.495483 794.732422,538.932556 795.014893,538.509888 
	C801.692688,528.513489 804.550964,517.436768 804.526306,505.499939 
	C804.520325,502.613708 803.887939,500.364502 801.023376,498.952606 
	C798.116943,497.520142 796.526001,494.739624 795.000000,492.000000 
"/>
<path fill="none" opacity="1.000000" stroke="#000000" stroke-linecap="round" stroke-linejoin="round" stroke-width="22.000000"
	d="
M742.000000,411.500000 
	C743.799011,418.430206 742.827942,425.495605 742.934387,432.501007 
	C742.963684,434.424927 740.891968,435.015991 739.520508,436.027832 
	C733.229797,440.668915 726.258728,444.169556 719.461365,447.930176 
	C714.565430,450.638855 708.939636,451.575226 703.478760,452.350494 
	C700.207153,452.814972 698.478699,453.910614 697.452271,456.984070 
	C695.364075,463.236389 690.763855,468.548065 690.480408,475.499207 
	C690.466553,475.838776 690.238098,476.236786 689.989746,476.489868 
	C681.258728,485.385132 680.705750,497.866974 676.231689,508.596619 
	C671.953735,518.855896 668.339050,529.519836 665.977051,540.495056 
	C665.467590,542.862183 665.153503,545.474915 663.908264,547.441956 
	C660.242249,553.232849 661.875427,559.290039 663.167175,564.961914 
	C665.191650,573.851074 676.035278,576.945374 682.954468,570.947449 
	C686.056946,568.257996 689.269714,565.366394 691.364685,561.917786 
	C694.880310,556.130615 699.966919,554.848206 706.000000,555.000000 
"/>
<path fill="none" opacity="1.000000" stroke="#000000" stroke-linecap="round" stroke-linejoin="round" stroke-width="17.000000"
	d="
M675.000000,364.000000 
	C673.666687,363.166656 672.272461,362.415955 671.010315,361.485962 
	C664.863220,356.956482 660.313293,356.946808 654.498779,361.498413 
	C644.850525,369.051025 639.216431,379.327393 635.049194,390.518311 
	C633.415222,394.906372 632.521240,399.568787 630.911133,403.967468 
	C630.229614,405.829163 630.290100,407.165192 630.911438,409.029510 
	C633.416016,416.544128 639.925903,418.616058 645.970703,413.465607 
	C647.662476,412.024078 649.234741,410.321289 650.454102,408.469788 
	C653.597351,403.696991 657.820862,400.775055 663.500000,400.000000 
"/>
<path fill="none" opacity="1.000000" stroke="#000000" stroke-linecap="round" stroke-linejoin="round" stroke-width="3.000000"
	d="
M634.500000,296.500000 
	C619.263062,293.282501 605.563293,299.666992 591.532043,303.613831 
	C586.333862,305.076050 581.491272,307.813507 576.504150,310.009369 
	C574.376404,310.946259 572.253052,311.456146 570.000000,310.500000 
"/>
<path fill="none" opacity="1.000000" stroke="#000000" stroke-linecap="round" stroke-linejoin="round" stroke-width="8.000000"
	d="
M547.500000,514.500000 
	C539.481079,510.716980 534.668152,512.021362 527.954041,518.955505 
	C521.395508,525.728882 515.798523,533.387512 511.803894,541.646973 
	C507.844604,549.833435 502.279388,552.724792 494.000000,552.500000 
"/>
<path fill="none" opacity="1.000000" stroke="#000000" stroke-linecap="round" stroke-linejoin="round" stroke-width="18.000000"
	d="
M276.000000,351.000000 
	C276.674347,356.490723 275.055389,361.549713 272.989319,366.495544 
	C267.910431,378.653503 264.985199,391.496490 260.929260,403.977020 
	C257.057007,415.892242 256.060120,428.282196 254.032532,440.505402 
	C253.491531,443.766815 254.222290,447.141998 255.623184,449.938293 
	C257.890900,454.464874 265.372986,455.327881 269.976990,451.968475 
	C271.293854,451.007599 272.564423,449.820068 273.458832,448.472687 
	C276.819122,443.410614 281.549530,441.103546 287.500000,441.000000 
"/>
<path fill="none" opacity="1.000000" stroke="#000000" stroke-linecap="round" stroke-linejoin="round" stroke-width="17.000000"
	d="
M678.500000,364.500000 
	C674.550781,376.291138 668.532349,387.284729 664.764160,399.084351 
	C663.442688,403.222534 664.055725,408.830383 665.850952,412.842987 
	C667.291077,416.061981 667.502563,418.857758 667.493347,421.999969 
	C667.478943,426.919922 667.657349,431.812866 665.579224,436.534882 
	C664.463318,439.070374 664.794800,442.632385 661.951965,443.891541 
	C657.528564,445.850677 653.026306,448.187775 648.002869,447.941193 
	C642.227783,447.657654 636.525940,446.882965 631.437622,443.596588 
	C630.511230,442.998260 629.262512,442.395538 627.462646,442.853088 
	C618.000000,445.258514 609.029663,443.992859 600.982788,438.023224 
	C599.705505,437.075653 598.116516,436.967682 596.500000,436.967865 
	C592.830383,436.968262 589.137390,437.310272 585.500000,436.500000 
"/>
<path fill="none" opacity="1.000000" stroke="#000000" stroke-linecap="round" stroke-linejoin="round" stroke-width="12.000000"
	d="
M594.500000,405.000000 
	C587.539368,403.578735 583.398743,407.963715 579.539185,412.533081 
	C575.426392,417.402252 570.572632,420.932129 564.519287,423.054993 
	C558.152466,425.287842 552.092834,424.464264 547.666077,419.841003 
	C543.720276,415.720001 541.697205,410.480621 543.351929,403.962402 
	C546.940552,389.825439 552.349182,376.978821 563.972229,367.466095 
	C565.825073,365.949707 567.877747,364.891235 570.015503,364.038910 
	C576.469116,361.466034 582.487549,366.093292 581.455688,372.993378 
	C579.515930,385.964691 569.640381,395.150391 558.471863,398.403442 
	C554.346680,399.605011 550.512146,396.775116 546.500000,396.000000 
"/>
<path fill="none" opacity="1.000000" stroke="#000000" stroke-linecap="round" stroke-linejoin="round" stroke-width="22.000000"
	d="
M548.000000,506.500000 
	C549.169373,517.760925 546.418457,528.314575 541.969482,538.486633 
	C537.298645,549.166077 532.870483,559.897156 530.936218,571.489380 
	C530.825134,572.154846 530.532166,573.653992 529.000000,573.000000 
"/>
<path fill="none" opacity="1.000000" stroke="#000000" stroke-linecap="round" stroke-linejoin="round" stroke-width="22.000000"
	d="
M750.000000,552.000000 
	C744.847717,551.593323 740.770081,553.299866 737.433655,557.446655 
	C734.414307,561.199219 731.105652,564.821472 727.438477,567.927368 
	C721.364685,573.071655 711.873779,572.284363 708.731323,565.886414 
	C706.669739,561.689209 705.552429,556.492798 707.499084,551.499634 
	C713.693420,535.610657 718.824402,519.284912 726.577271,504.039307 
	C728.434753,500.386597 725.228149,498.060913 725.250000,495.000000 
"/>
<path fill="none" opacity="1.000000" stroke="#000000" stroke-linecap="round" stroke-linejoin="round" stroke-width="18.000000"
	d="
M397.000000,349.500000 
	C393.953583,349.403717 391.744476,350.810822 390.523468,353.510620 
	C387.234436,360.782776 385.810333,368.961639 380.000000,375.000000 
	C377.619415,389.531586 370.377991,402.620850 367.559479,417.011658 
	C367.241943,418.632935 366.768250,420.109222 365.984772,421.491364 
	C363.138184,426.513214 364.589111,431.555511 366.050812,436.484924 
	C367.620880,441.779694 374.559845,445.246887 380.976349,441.459961 
	C385.324310,438.893829 388.697083,435.010498 391.365479,430.912415 
	C394.749237,425.715637 399.250793,423.924133 405.000000,424.000000 
"/>
<path fill="none" opacity="1.000000" stroke="#000000" stroke-linecap="round" stroke-linejoin="round" stroke-width="3.000000"
	d="
M619.500000,276.500000 
	C613.826294,284.698181 604.805664,288.045258 596.528442,292.552216 
	C588.397949,296.979248 579.313232,300.600586 572.829590,306.842346 
	C566.179871,313.243927 557.842285,316.373322 550.956421,321.946136 
	C549.076721,323.467377 546.666687,324.333344 544.500000,325.500031 
"/>
<path fill="none" opacity="1.000000" stroke="#000000" stroke-linecap="round" stroke-linejoin="round" stroke-width="21.000000"
	d="
M635.500000,497.500000 
	C635.362610,500.225494 635.429077,502.926270 636.500549,505.499786 
	C638.338928,509.915253 635.219299,513.336670 633.893555,516.961060 
	C629.532288,528.883728 624.430359,540.515259 619.051697,552.024170 
	C617.901306,554.485718 616.918152,557.125183 618.419800,560.041321 
	C619.065247,561.294739 619.015198,563.005920 618.966492,564.498901 
	C618.806824,569.395020 619.534241,573.756714 625.003662,575.488342 
	C630.049133,577.085815 634.437012,575.391846 637.928650,571.928040 
	C640.939209,568.941467 643.734375,565.573669 645.908813,561.945374 
	C649.428955,556.071594 654.393982,553.655396 661.000000,554.000000 
"/>
<path fill="none" opacity="1.000000" stroke="#000000" stroke-linecap="round" stroke-linejoin="round" stroke-width="5.000000"
	d="
M614.500000,350.000000 
	C616.445129,346.805908 616.569763,342.071777 619.646790,340.247589 
	C622.826538,338.362579 626.667175,341.711334 630.502930,341.608704 
	C635.157349,341.484161 639.866150,341.924622 644.492859,342.552765 
	C652.896240,343.693695 661.649170,344.068024 668.000000,351.000000 
"/>
<path fill="none" opacity="1.000000" stroke="#000000" stroke-linecap="round" stroke-linejoin="round" stroke-width="6.000000"
	d="
M346.000000,391.500000 
	C342.637177,391.461517 339.299774,391.613251 335.983398,390.551880 
	C331.962311,389.264954 328.499329,390.447632 325.470795,393.470734 
	C321.328796,397.605347 317.213654,401.939667 314.668793,407.083496 
	C311.394226,413.702393 306.454681,416.598663 299.500000,417.000000 
"/>
<path fill="none" opacity="1.000000" stroke="#000000" stroke-linecap="round" stroke-linejoin="round" stroke-width="18.000000"
	d="
M339.500000,388.000000 
	C340.738525,398.633514 335.427551,407.552277 332.078918,417.027893 
	C329.901581,423.189056 327.060638,429.260468 327.025269,436.000122 
	C327.005859,439.698395 325.954712,443.793274 330.489716,446.020935 
	C334.253204,447.869598 338.789886,447.126404 342.465637,443.465515 
	C345.304382,440.638275 348.446136,437.842651 350.359222,434.421295 
	C353.378296,429.021973 357.707123,426.970123 363.500000,427.000000 
"/>
<path fill="none" opacity="1.000000" stroke="#000000" stroke-linecap="round" stroke-linejoin="round" stroke-width="12.000000"
	d="
M690.500000,476.500000 
	C701.130310,481.399292 712.083862,479.313446 722.999634,477.997223 
	C727.001770,477.514648 731.000000,476.999969 735.000000,476.499969 
"/>
<path fill="none" opacity="1.000000" stroke="#000000" stroke-linecap="round" stroke-linejoin="round" stroke-width="16.000000"
	d="
M581.000000,659.500000 
	C582.228027,656.483093 584.967834,655.037659 587.520996,653.535706 
	C594.120117,649.653748 599.085205,644.534180 602.623047,637.562439 
	C607.323120,628.300232 603.523987,616.146545 591.493347,614.550171 
	C580.056641,613.032532 575.289978,613.536743 570.000854,620.999390 
	C571.661743,622.058838 569.826721,625.448853 573.000000,625.500000 
"/>
<path fill="none" opacity="1.000000" stroke="#000000" stroke-linecap="round" stroke-linejoin="round" stroke-width="17.000000"
	d="
M608.000000,357.500000 
	C608.270142,359.156311 607.278564,361.068054 608.532715,362.470764 
	C611.446167,365.729309 609.791931,369.156891 608.384583,371.941681 
	C603.401489,381.802032 600.747253,392.564697 596.041321,402.519531 
	C593.421143,408.062134 595.441040,417.046631 599.500000,419.499969 
	C603.076660,421.661835 607.774963,421.522766 610.977478,418.971771 
	C612.443054,417.804382 613.897217,416.493896 614.957886,414.970642 
	C618.519287,409.855774 623.211365,406.850708 629.500000,406.500000 
"/>
<path fill="none" opacity="1.000000" stroke="#000000" stroke-linecap="round" stroke-linejoin="round" stroke-width="9.000000"
	d="
M573.000000,564.500000 
	C564.972778,564.676392 559.904846,569.494019 555.472534,575.479675 
	C552.496948,579.498108 549.213562,583.139343 544.012329,584.545593 
	C536.643921,586.537781 531.557007,583.118164 530.984619,575.501160 
	C530.933838,574.825745 530.666687,574.166687 530.500000,573.500000 
"/>
<path fill="none" opacity="1.000000" stroke="#000000" stroke-linecap="round" stroke-linejoin="round" stroke-width="10.000000"
	d="
M507.500000,395.500000 
	C503.101349,393.968597 499.044250,393.521942 494.426483,395.854492 
	C486.857422,399.677887 478.089935,399.343170 470.017578,401.563904 
	C468.250122,402.050171 467.370453,400.683716 466.037567,400.350006 
	C463.410156,399.692169 461.000000,398.166656 458.500000,397.000000 
"/>
<path fill="none" opacity="1.000000" stroke="#000000" stroke-linecap="round" stroke-linejoin="round" stroke-width="22.000000"
	d="
M503.000000,514.000000 
	C504.691010,515.694763 504.123444,517.714783 503.451294,519.481445 
	C501.591980,524.368347 499.514709,529.172852 497.496155,533.998413 
	C495.151428,539.603699 493.164459,545.225830 493.411469,551.503479 
	C493.545715,554.915710 491.607391,557.867188 489.487244,560.489685 
	C484.501129,566.657288 484.291718,574.238953 483.710815,581.516846 
	C483.492981,584.246277 485.666656,587.166687 486.750000,590.000000 
"/>
<path fill="none" opacity="1.000000" stroke="#000000" stroke-linecap="round" stroke-linejoin="round" stroke-width="17.000000"
	d="
M541.500000,408.000000 
	C536.818298,407.803253 533.341309,409.632660 530.416443,413.435730 
	C527.194153,417.625458 524.254333,422.081207 519.566101,425.102570 
	C515.731018,427.574036 512.132751,428.427063 508.003510,426.492493 
	C503.316986,424.296783 503.443451,419.941132 504.101624,416.017059 
	C505.659485,406.729187 507.389343,397.466919 511.929474,388.962341 
	C514.487244,384.171173 516.217468,378.944977 518.554077,374.025696 
	C519.562256,371.903015 518.907837,370.265961 518.000000,368.500000 
"/>
<path fill="none" opacity="1.000000" stroke="#000000" stroke-linecap="round" stroke-linejoin="round" stroke-width="8.000000"
	d="
M699.500000,398.000000 
	C694.167603,398.251617 690.078003,399.990631 686.839783,404.894226 
	C682.527832,411.423889 677.034302,417.129150 668.000000,416.500000 
"/>
<path fill="none" opacity="1.000000" stroke="#000000" stroke-linecap="round" stroke-linejoin="round" stroke-width="11.000000"
	d="
M682.500000,486.500000 
	C674.558594,481.747284 665.914429,483.700592 657.506348,484.125183 
	C654.847229,484.259460 652.164429,484.297180 649.500000,484.500000 
"/>
<path fill="none" opacity="1.000000" stroke="#000000" stroke-linecap="round" stroke-linejoin="round" stroke-width="8.000000"
	d="
M569.500000,621.000000 
	C563.938232,618.462769 559.101624,620.071411 554.486328,623.481445 
	C550.662415,626.306824 546.836914,629.044373 543.937134,632.953369 
	C542.411377,635.010193 541.740479,637.048340 542.000000,639.500000 
"/>
<path fill="none" opacity="1.000000" stroke="#000000" stroke-linecap="round" stroke-linejoin="round" stroke-width="8.000000"
	d="
M831.500000,531.000000 
	C824.599182,528.706909 817.960388,528.478821 812.001038,533.501282 
	C807.994629,536.877869 803.545044,536.335022 799.000000,535.000000 
"/>
<path fill="none" opacity="1.000000" stroke="#000000" stroke-linecap="round" stroke-linejoin="round" stroke-width="2.000000"
	d="
M664.500000,259.500000 
	C654.975525,265.286163 644.824524,268.914185 633.500000,268.500000 
"/>
<path fill="none" opacity="1.000000" stroke="#000000" stroke-linecap="round" stroke-linejoin="round" stroke-width="9.000000"
	d="
M773.000000,513.500000 
	C775.513306,515.392029 776.856750,518.262451 777.374390,521.023560 
	C778.929749,529.319092 783.995056,534.142029 791.494629,537.014038 
	C792.533691,537.411987 793.500000,538.000000 794.500000,538.500000 
"/>
<path fill="none" opacity="1.000000" stroke="#000000" stroke-linecap="round" stroke-linejoin="round" stroke-width="22.000000"
	d="
M842.250000,493.000000 
	C843.370361,495.704285 843.190186,498.202850 842.086365,501.033691 
	C838.790222,509.486877 835.786133,517.974670 833.707092,526.932007 
	C831.088501,538.213928 826.333374,549.000000 822.500000,560.000000 
"/>
<path fill="none" opacity="1.000000" stroke="#000000" stroke-linecap="round" stroke-linejoin="round" stroke-width="8.000000"
	d="
M321.000000,569.500000 
	C315.384125,567.906433 309.925049,567.340088 304.989471,571.487488 
	C300.996796,574.842529 296.438904,575.536804 291.500000,574.000000 
"/>
<path fill="none" opacity="1.000000" stroke="#000000" stroke-linecap="round" stroke-linejoin="round" stroke-width="8.000000"
	d="
M265.000000,555.500000 
	C267.012329,557.006714 268.099762,559.181702 268.444763,561.508179 
	C269.502563,568.640686 273.994537,573.055786 280.070068,575.847534 
	C282.005096,576.736633 283.733490,578.306274 286.000000,578.500000 
"/>
<path fill="none" opacity="1.000000" stroke="#000000" stroke-linecap="round" stroke-linejoin="round" stroke-width="9.000000"
	d="
M387.000000,366.000000 
	C394.100647,371.159424 401.991608,367.453491 409.504242,367.933411 
	C411.308929,368.048676 413.166656,367.333344 415.000000,367.000000 
"/>
<path fill="none" opacity="1.000000" stroke="#000000" stroke-linecap="round" stroke-linejoin="round" stroke-width="10.000000"
	d="
M352.500000,373.000000 
	C357.359619,373.595398 362.171570,373.181885 367.005188,372.538910 
	C371.315979,371.965454 375.510559,372.725647 379.500000,374.500000 
"/>
<path fill="none" opacity="1.000000" stroke="#000000" stroke-linecap="round" stroke-linejoin="round" stroke-width="4.000000"
	d="
M634.000000,416.000000 
	C631.632568,424.686035 629.884460,433.477234 629.500000,442.500000 
"/>
<path fill="none" opacity="1.000000" stroke="#000000" stroke-linecap="round" stroke-linejoin="round" stroke-width="12.000000"
	d="
M257.500000,411.500000 
	C249.534393,409.682343 241.538651,409.331329 233.499756,410.998840 
	C231.167999,411.482513 228.747681,412.026154 226.520035,410.958191 
	C223.167816,409.351074 221.026749,411.840088 218.508301,413.017761 
	C214.676849,414.809357 212.461929,417.280182 211.170868,421.908173 
	C209.530746,427.787537 205.603760,433.061127 202.425491,438.456116 
	C201.651123,439.770538 199.849213,438.920654 198.500000,438.750000 
"/>
<path fill="none" opacity="1.000000" stroke="#000000" stroke-linecap="round" stroke-linejoin="round" stroke-width="18.000000"
	d="
M302.250000,387.000000 
	C305.942108,391.734100 304.709503,396.133148 302.151581,401.078400 
	C299.982513,405.271851 298.523560,410.019867 299.005371,414.999481 
	C299.162109,416.619324 298.681702,418.053955 298.017181,419.507843 
	C294.978180,426.156677 292.225311,432.950256 288.863159,439.428986 
	C287.849884,441.381531 288.128967,442.987427 288.602692,444.467133 
	C289.597809,447.575409 291.166687,450.500000 292.500000,453.500000 
"/>
<path fill="none" opacity="1.000000" stroke="#000000" stroke-linecap="round" stroke-linejoin="round" stroke-width="14.000000"
	d="
M466.500000,650.500000 
	C466.500000,664.500000 466.500000,678.500000 466.500000,692.500000 
"/>
<path fill="none" opacity="1.000000" stroke="#000000" stroke-linecap="round" stroke-linejoin="round" stroke-width="3.000000"
	d="
M593.000000,334.000000 
	C596.008728,336.640411 600.008301,336.312592 603.515625,337.451813 
	C606.775696,338.510773 610.166687,339.166656 613.500000,340.000000 
"/>
<path fill="none" opacity="1.000000" stroke="#000000" stroke-linecap="round" stroke-linejoin="round" stroke-width="14.000000"
	d="
M394.500000,655.500000 
	C394.500000,669.166687 394.500000,682.833313 394.500000,696.500000 
"/>
<path fill="none" opacity="1.000000" stroke="#000000" stroke-linecap="round" stroke-linejoin="round" stroke-width="14.000000"
	d="
M485.500000,671.500000 
	C472.833344,671.500000 460.166656,671.500000 447.500000,671.500000 
"/>
<path fill="none" opacity="1.000000" stroke="#000000" stroke-linecap="round" stroke-linejoin="round" stroke-width="3.000000"
	d="
M603.000000,365.000000 
	C598.474304,364.473114 593.995667,365.215729 589.500000,365.500000 
"/>
<path fill="none" opacity="1.000000" stroke="#000000" stroke-linecap="round" stroke-linejoin="round" stroke-width="3.000000"
	d="
M899.500000,494.000000 
	C895.517517,494.543579 891.350281,492.870087 887.500000,495.000000 
"/>
<path fill="none" opacity="1.000000" stroke="#000000" stroke-linecap="round" stroke-linejoin="round" stroke-width="3.000000"
	d="
M291.500000,530.000000 
	C289.357941,529.931824 287.202728,529.810913 285.500000,531.500000 
"/>
</svg>